<?xml version="1.0" standalone="no"?>
<!DOCTYPE svg PUBLIC "-//W3C//DTD SVG 20010904//EN"
 "http://www.w3.org/TR/2001/REC-SVG-20010904/DTD/svg10.dtd">
<svg version="1.0" xmlns="http://www.w3.org/2000/svg"
 width="500.000000pt" height="500.000000pt" viewBox="0 0 500.000000 500.000000"
 preserveAspectRatio="xMidYMid meet">

<g transform="translate(0.000000,500.000000) scale(0.100000,-0.100000)"
fill="#000000" stroke="none">
<path d="M2747 3173 c-2 -4 -1 -125 3 -268 11 -355 -6 -1162 -24 -1190 -8 -11
-34 -42 -59 -68 -47 -48 -84 -60 -105 -34 -20 24 -41 123 -57 266 -9 79 -24
167 -33 195 -15 46 -20 51 -50 54 -56 6 -114 -67 -218 -272 -49 -97 -92 -176
-95 -176 -3 0 -8 51 -11 114 -4 94 -10 123 -29 163 -21 41 -29 48 -58 51 -50
5 -111 -64 -188 -213 l-62 -120 -1 92 c0 157 -34 260 -92 284 -65 27 -181 -56
-304 -220 -64 -86 -76 -122 -42 -129 12 -2 33 19 65 64 119 167 180 224 242
224 27 0 34 -5 47 -36 35 -85 26 -345 -16 -456 -21 -56 -17 -80 14 -76 23 3
40 31 182 302 155 294 177 292 182 -19 2 -104 8 -194 13 -199 22 -23 74 55
171 253 133 274 176 334 197 278 5 -13 14 -83 21 -157 29 -327 108 -421 249
-294 l51 46 0 -295 c0 -309 3 -327 44 -311 14 5 16 40 16 324 0 175 3 325 6
334 10 26 69 -12 185 -119 178 -165 253 -182 398 -86 66 43 178 152 217 210
27 41 27 44 10 56 -24 18 -35 12 -71 -36 -48 -66 -170 -176 -224 -204 -98 -49
-152 -29 -304 115 -58 54 -124 108 -146 120 -38 19 -40 23 -30 42 27 50 288
298 387 367 97 68 119 95 88 107 -46 18 -323 -204 -454 -363 -19 -24 -37 -43
-41 -43 -4 0 -7 255 -8 568 0 312 -4 610 -9 662 -8 86 -11 95 -31 98 -11 2
-23 0 -26 -5z"/>
<path d="M3616 2829 c-27 -4 -69 -21 -95 -36 -92 -57 -140 -210 -111 -355 21
-108 65 -170 145 -204 56 -24 169 -23 221 2 43 21 71 62 60 89 -6 17 -9 16
-34 -7 -42 -39 -66 -48 -130 -48 -75 0 -116 26 -151 95 -24 45 -26 61 -26 165
0 103 3 120 25 165 33 66 77 95 146 95 46 0 55 -4 78 -31 14 -17 26 -39 26
-50 0 -21 21 -25 51 -9 23 13 25 57 4 87 -26 37 -123 56 -209 42z"/>
<path d="M387 2823 c-14 -13 -6 -23 26 -31 52 -14 57 -34 57 -267 0 -233 -5
-253 -58 -269 -17 -5 -32 -15 -32 -22 0 -11 23 -14 100 -14 82 0 100 3 100 15
0 8 -12 18 -26 21 -14 4 -30 17 -35 31 -12 31 -12 483 0 464 5 -7 51 -130 102
-272 82 -227 97 -259 115 -259 18 0 32 31 109 248 49 136 94 258 101 272 11
21 13 -11 14 -208 0 -133 -4 -241 -10 -252 -5 -10 -21 -21 -35 -24 -14 -4 -25
-13 -25 -21 0 -12 20 -15 115 -15 90 0 115 3 115 14 0 7 -15 17 -32 22 -53 16
-58 36 -58 269 0 234 5 253 58 267 62 16 31 33 -65 36 -79 2 -91 0 -98 -15 -4
-10 -40 -112 -81 -227 -41 -115 -78 -216 -83 -224 -11 -20 -13 -16 -112 260
l-74 208 -91 0 c-50 0 -94 -3 -97 -7z"/>
<path d="M1595 2818 c-56 -157 -189 -506 -200 -528 -8 -16 -27 -33 -40 -36
-14 -3 -25 -12 -25 -20 0 -11 21 -14 100 -14 77 0 100 3 100 14 0 7 -15 17
-32 22 -41 12 -46 38 -20 114 l19 55 114 0 114 0 23 -64 c12 -36 20 -71 17
-79 -3 -7 -19 -19 -35 -25 -17 -6 -30 -17 -30 -24 0 -10 28 -13 115 -13 123 0
145 11 82 40 -30 14 -37 29 -133 290 l-101 275 -31 3 c-20 2 -34 -2 -37 -10z
m108 -350 c-7 -12 -183 -10 -183 3 0 5 21 69 47 142 l47 132 47 -135 c25 -74
44 -138 42 -142z"/>
<path d="M2112 2813 c2 -10 13 -19 26 -21 30 -4 35 -16 138 -314 l89 -258 30
0 30 0 85 247 c106 307 111 319 144 327 14 3 26 13 26 21 0 12 -18 15 -100 15
-81 0 -100 -3 -100 -15 0 -8 14 -18 33 -23 24 -6 33 -14 35 -34 2 -14 -24
-106 -58 -204 -34 -99 -65 -195 -69 -214 -5 -21 -10 -29 -13 -20 -80 238 -139
431 -137 445 3 11 17 22 37 27 18 5 32 15 32 23 0 12 -21 15 -116 15 -105 0
-115 -2 -112 -17z"/>
<path d="M2897 2823 c-14 -13 -6 -23 26 -31 52 -14 57 -34 57 -267 0 -233 -5
-253 -58 -269 -17 -5 -32 -15 -32 -22 0 -11 26 -14 125 -14 100 0 125 3 125
14 0 8 -12 17 -27 21 -54 13 -53 10 -53 270 0 258 0 260 50 267 14 1 26 11 28
21 3 15 -8 17 -116 17 -65 0 -122 -3 -125 -7z"/>
<path d="M4092 2813 c2 -9 16 -20 32 -24 16 -5 33 -14 37 -21 12 -19 11 -465
-1 -488 -5 -10 -23 -21 -40 -25 -16 -4 -30 -13 -30 -21 0 -11 23 -14 120 -14
97 0 120 3 120 14 0 8 -14 17 -30 21 -41 9 -50 31 -50 119 0 74 0 75 38 106
35 29 38 30 49 12 83 -122 168 -235 188 -248 13 -8 49 -18 79 -21 48 -5 56 -3
56 11 0 9 -10 20 -22 25 -33 13 -66 50 -166 191 l-90 125 62 69 c89 102 125
136 152 146 13 5 24 16 24 25 0 12 -16 15 -90 15 -70 0 -90 -3 -90 -14 0 -7
10 -20 21 -28 19 -12 20 -17 9 -39 -7 -13 -59 -77 -114 -141 l-101 -117 -3
129 c-3 143 4 167 45 172 17 2 29 10 31 21 3 15 -8 17 -118 17 -108 0 -121 -2
-118 -17z"/>
</g>
</svg>
